#Comment line ignore any data following # character 
#Hierarchical Translation and Rotation (.htr) file 
[Header]	
#Header keywords are followed by a single value 
FileType HTR		#Single word string
DataType HTRS		#Translation followed by rotation and scale data
FileVersion 1		#integer
NumSegments 64		#integer
NumFrames 2		#integer
DataFrameRate 30		#integer, data frame rate in this file
EulerRotationOrder ZYX
CalibrationUnits mm
RotationUnits Degrees
GlobalAxisofGravity Y
BoneLengthAxis Y
ScaleFactor 1.00
[SegmentNames&Hierarchy]
#CHILD	PARENT
Pinger_Root GLOBAL
Pelvis Pinger_Root
L_Hip Pelvis
R_Hip Pelvis
Rear_Leg01 Pelvis
Spine1 Pelvis
L_Leg01 L_Hip
L_Leg02 L_Leg01
L_Leg03 L_Leg02
L_Foot L_Leg03
L_Toe1_01 L_Foot
L_Toe2_01 L_Foot
L_Toe3_01 L_Foot
planeAlignerLeft L_Foot
L_Toe1_02 L_Toe1_01
L_Toe1_03 L_Toe1_02
L_Toe2_02 L_Toe2_01
L_Toe2_03 L_Toe2_02
L_Toe3_02 L_Toe3_01
L_Toe3_03 L_Toe3_02
planeLockWeightLeft planeAlignerLeft
R_Leg01 R_Hip
R_Leg02 R_Leg01
R_Leg03 R_Leg02
R_Foot R_Leg03
planeAlignerRight R_Foot
R_Toe1_01 R_Foot
R_Toe2_01 R_Foot
R_Toe3_01 R_Foot
planeLockWeightRight planeAlignerRight
R_Toe1_02 R_Toe1_01
R_Toe1_03 R_Toe1_02
R_Toe2_02 R_Toe2_01
R_Toe2_03 R_Toe2_02
R_Toe3_02 R_Toe3_01
R_Toe3_03 R_Toe3_02
Rear_Leg02 Rear_Leg01
Rear_Leg03 Rear_Leg02
Rear_Leg04 Rear_Leg03
Rear_Foot Rear_Leg04
planeAlignerCenter Rear_Foot
Rear_Toe1_01 Rear_Foot
Rear_Toe2_01 Rear_Foot
Rear_Toe3_01 Rear_Foot
planeLockWeightCenter planeAlignerCenter
Rear_Toe1_02 Rear_Toe1_01
Rear_Toe1_03 Rear_Toe1_02
Rear_Toe2_02 Rear_Toe2_01
Rear_Toe2_03 Rear_Toe2_02
Rear_Toe3_02 Rear_Toe3_01
Rear_Toe3_03 Rear_Toe3_02
Back_Bone Spine1
Head Spine1
Motor_Bone Back_Bone
Ping_Mechanism Back_Bone
BN_LookIK Head
bottomMouth Head
L_Mouth01 Head
L_mouthFront Head
mouthGun Head
R_Mouth01 Head
R_mouthFront Head
TopMouth Head
weapon_bone Head
[BasePosition]
#SegmentName Tx, Ty, Tz, Rx, Ry, Rz, BoneLength
Pinger_Root 0.000000 0.000000 0.000000 -90.000000 0.000000 0.000000 10.000000 
Pelvis 0.000000 0.000000 0.000000 0.000000 0.000000 0.000000 10.000000 
L_Hip 0.000000 0.000000 0.000000 0.000000 0.000000 0.000000 10.000000 
R_Hip 0.000000 0.000000 0.000000 0.000000 0.000000 0.000000 10.000000 
Rear_Leg01 0.000000 0.000000 0.000000 0.000000 0.000000 0.000000 10.000000 
Spine1 0.000000 0.000000 0.000000 0.000000 0.000000 0.000000 10.000000 
L_Leg01 0.000000 0.000000 0.000000 0.000000 0.000000 0.000000 10.000000 
L_Leg02 0.000000 0.000000 0.000000 0.000000 0.000000 0.000000 10.000000 
L_Leg03 0.000000 0.000000 0.000000 0.000000 0.000000 0.000000 10.000000 
L_Foot 0.000000 0.000000 0.000000 0.000000 0.000000 0.000000 10.000000 
L_Toe1_01 0.000000 0.000000 0.000000 0.000000 0.000000 0.000000 10.000000 
L_Toe2_01 0.000000 0.000000 0.000000 0.000000 0.000000 0.000000 10.000000 
L_Toe3_01 0.000000 0.000000 0.000000 0.000000 0.000000 0.000000 10.000000 
planeAlignerLeft 0.000000 0.000000 0.000000 0.000000 0.000000 0.000000 10.000000 
L_Toe1_02 0.000000 0.000000 0.000000 0.000000 0.000000 0.000000 10.000000 
L_Toe1_03 0.000000 0.000000 0.000000 0.000000 0.000000 0.000000 10.000000 
L_Toe2_02 0.000000 0.000000 0.000000 0.000000 0.000000 0.000000 10.000000 
L_Toe2_03 0.000000 0.000000 0.000000 0.000000 0.000000 0.000000 10.000000 
L_Toe3_02 0.000000 0.000000 0.000000 0.000000 0.000000 0.000000 10.000000 
L_Toe3_03 0.000000 0.000000 0.000000 0.000000 0.000000 0.000000 10.000000 
planeLockWeightLeft 0.000000 0.000000 0.000000 0.000000 0.000000 0.000000 10.000000 
R_Leg01 0.000000 0.000000 0.000000 0.000000 0.000000 0.000000 10.000000 
R_Leg02 0.000000 0.000000 0.000000 0.000000 0.000000 0.000000 10.000000 
R_Leg03 0.000000 0.000000 0.000000 0.000000 0.000000 0.000000 10.000000 
R_Foot 0.000000 0.000000 0.000000 0.000000 0.000000 0.000000 10.000000 
planeAlignerRight 0.000000 0.000000 0.000000 0.000000 0.000000 0.000000 10.000000 
R_Toe1_01 0.000000 0.000000 0.000000 0.000000 0.000000 0.000000 10.000000 
R_Toe2_01 0.000000 0.000000 0.000000 0.000000 0.000000 0.000000 10.000000 
R_Toe3_01 0.000000 0.000000 0.000000 0.000000 0.000000 0.000000 10.000000 
planeLockWeightRight 0.000000 0.000000 0.000000 0.000000 0.000000 0.000000 10.000000 
R_Toe1_02 0.000000 0.000000 0.000000 0.000000 0.000000 0.000000 10.000000 
R_Toe1_03 0.000000 0.000000 0.000000 0.000000 0.000000 0.000000 10.000000 
R_Toe2_02 0.000000 0.000000 0.000000 0.000000 0.000000 0.000000 10.000000 
R_Toe2_03 0.000000 0.000000 0.000000 0.000000 0.000000 0.000000 10.000000 
R_Toe3_02 0.000000 0.000000 0.000000 0.000000 0.000000 0.000000 10.000000 
R_Toe3_03 0.000000 0.000000 0.000000 0.000000 0.000000 0.000000 10.000000 
Rear_Leg02 0.000000 0.000000 0.000000 0.000000 0.000000 0.000000 10.000000 
Rear_Leg03 0.000000 0.000000 0.000000 0.000000 0.000000 0.000000 10.000000 
Rear_Leg04 0.000000 0.000000 0.000000 0.000000 0.000000 0.000000 10.000000 
Rear_Foot 0.000000 0.000000 0.000000 0.000000 0.000000 0.000000 10.000000 
planeAlignerCenter 0.000000 0.000000 0.000000 0.000000 0.000000 0.000000 10.000000 
Rear_Toe1_01 0.000000 0.000000 0.000000 0.000000 0.000000 0.000000 10.000000 
Rear_Toe2_01 0.000000 0.000000 0.000000 0.000000 0.000000 0.000000 10.000000 
Rear_Toe3_01 0.000000 0.000000 0.000000 0.000000 0.000000 0.000000 10.000000 
planeLockWeightCenter 0.000000 0.000000 0.000000 0.000000 0.000000 0.000000 10.000000 
Rear_Toe1_02 0.000000 0.000000 0.000000 0.000000 0.000000 0.000000 10.000000 
Rear_Toe1_03 0.000000 0.000000 0.000000 0.000000 0.000000 0.000000 10.000000 
Rear_Toe2_02 0.000000 0.000000 0.000000 0.000000 0.000000 0.000000 10.000000 
Rear_Toe2_03 0.000000 0.000000 0.000000 0.000000 0.000000 0.000000 10.000000 
Rear_Toe3_02 0.000000 0.000000 0.000000 0.000000 0.000000 0.000000 10.000000 
Rear_Toe3_03 0.000000 0.000000 0.000000 0.000000 0.000000 0.000000 10.000000 
Back_Bone 0.000000 0.000000 0.000000 0.000000 0.000000 0.000000 10.000000 
Head 0.000000 0.000000 0.000000 0.000000 0.000000 0.000000 10.000000 
Motor_Bone 0.000000 0.000000 0.000000 0.000000 0.000000 0.000000 10.000000 
Ping_Mechanism 0.000000 0.000000 0.000000 0.000000 0.000000 0.000000 10.000000 
BN_LookIK 0.000000 0.000000 0.000000 0.000000 0.000000 0.000000 10.000000 
bottomMouth 0.000000 0.000000 0.000000 0.000000 0.000000 0.000000 10.000000 
L_Mouth01 0.000000 0.000000 0.000000 0.000000 0.000000 0.000000 10.000000 
L_mouthFront 0.000000 0.000000 0.000000 0.000000 0.000000 0.000000 10.000000 
mouthGun 0.000000 0.000000 0.000000 0.000000 0.000000 0.000000 10.000000 
R_Mouth01 0.000000 0.000000 0.000000 0.000000 0.000000 0.000000 10.000000 
R_mouthFront 0.000000 0.000000 0.000000 0.000000 0.000000 0.000000 10.000000 
TopMouth 0.000000 0.000000 0.000000 0.000000 0.000000 0.000000 10.000000 
weapon_bone 0.000000 0.000000 0.000000 0.000000 0.000000 0.000000 10.000000 
#Beginning of Data. Separated by tabs
#Fr	Tx	Ty	Tz	Rx	Ry	Rz	SF
[Pinger_Root]
17 0.000000 0.000000 0.000000 -0.000075 -0.000000 -0.000020 0.000000
18 0.000000 0.000000 0.000000 -0.000075 -0.000000 -0.000020 0.000000
[Pelvis]
17 -297.028809 380.746552 4922.755371 -87.162941 -80.607971 123.360962 4946.383789
18 -402.377502 331.002838 4961.599121 -93.027344 -79.462029 129.180084 4988.881348
[L_Hip]
17 5.766392 125.831482 872.656799 171.696472 -78.221367 98.224052 881.701050
18 5.766392 125.831482 872.656799 174.998581 -79.737663 94.575897 881.701050
[R_Hip]
17 5.765438 125.836372 -872.654907 14.261604 79.013626 102.727882 881.699829
18 5.765438 125.836372 -872.654907 8.398508 80.324722 97.134720 881.699829
[Rear_Leg01]
17 -192.298416 -925.602966 -0.001907 -164.823105 -26.727022 -138.729507 945.367432
18 -192.298416 -925.602966 -0.001907 -167.780197 -16.075588 -144.157059 945.367432
[Spine1]
17 290.604584 5.007505 0.000477 -23.521769 11.978301 15.829997 290.647736
18 290.604584 5.007505 0.000477 -22.872349 12.814355 14.914331 290.647736
[L_Leg01]
17 761.932007 -0.002384 -0.069261 60.034863 6.157982 -67.873352 761.932068
18 761.932007 -0.002384 -0.069261 61.011497 3.585831 -68.245796 761.932068
[L_Leg02]
17 1441.140503 -0.000954 -0.000715 -1.472644 0.638008 -77.023445 1441.140503
18 1441.140503 -0.000954 -0.000715 -1.484894 0.620791 -79.841812 1441.140503
[L_Leg03]
17 1686.963989 -0.000715 -0.000954 0.064982 -0.015385 92.459030 1686.963989
18 1686.963989 -0.000715 -0.000954 0.059613 -0.014243 93.837036 1686.963989
[L_Foot]
17 3041.570068 -30.715107 11.297464 -26.618034 15.666060 70.923737 3041.746094
18 3041.570068 -30.715107 11.297464 -25.173395 15.778002 71.959785 3041.746094
[L_Toe1_01]
17 -188.216690 -224.732346 -21.137953 89.496841 -6.207132 -170.732681 293.899567
18 -188.216690 -224.732346 -21.137953 89.586517 -5.235853 -169.059937 293.899567
[L_Toe2_01]
17 200.746536 -219.926590 148.838394 -78.429092 -17.873167 -40.094227 332.896027
18 200.746536 -219.926590 148.838394 -78.140205 -16.761972 -41.366272 332.896027
[L_Toe3_01]
17 188.832520 -219.859131 -191.078659 -100.897018 13.316049 -38.843548 347.140900
18 188.832520 -219.859131 -191.078659 -102.349510 13.845648 -40.792988 347.140900
[planeAlignerLeft]
17 2.651219 -540.878906 73.863335 0.000000 -90.000000 -90.001633 545.905457
18 -2.312385 -561.743042 58.246387 0.000000 -90.000000 -90.001633 564.759399
[L_Toe1_02]
17 413.761139 0.000477 0.000000 0.001424 -20.996313 0.001424 413.761139
18 413.761139 0.000477 0.000000 0.001421 -21.417583 0.001421 413.761139
[L_Toe1_03]
17 464.317322 0.000358 -0.000089 0.040678 86.692398 0.040678 464.317322
18 464.317322 0.000358 -0.000089 0.027167 85.046074 0.027167 464.317322
[L_Toe2_02]
17 342.235809 -0.000477 0.000238 0.001180 -77.781258 0.001180 342.235809
18 342.235809 -0.000477 0.000238 0.001180 -77.771278 0.001180 342.235809
[L_Toe2_03]
17 420.210846 -0.000715 0.000000 -179.996857 76.542160 -179.993347 420.210846
18 420.210846 -0.000715 0.000000 -179.996887 76.436554 -179.993362 420.210846
[L_Toe3_02]
17 329.270111 0.000954 0.000000 0.001176 -82.738129 0.001176 329.270111
18 329.270111 0.000954 0.000000 0.001176 -82.569801 0.001176 329.270111
[L_Toe3_03]
17 439.137451 -0.001907 0.000954 179.993118 67.437286 179.999344 439.137451
18 439.137451 -0.001907 0.000954 179.995697 68.910164 -179.998962 439.137451
[planeLockWeightLeft]
17 1000.000244 -0.000070 -0.000190 -0.011826 -0.004376 0.005620 1000.000244
18 1000.000244 -0.000082 -0.000220 -0.011826 -0.004376 0.005620 1000.000244
[R_Leg01]
17 761.455627 -0.001907 -0.000358 105.522804 -39.506847 63.848549 761.455688
18 761.455627 -0.001907 -0.000358 101.758224 -38.714348 67.071381 761.455688
[R_Leg02]
17 1441.140625 0.000000 -0.000238 0.022403 -0.005051 -112.588600 1441.140625
18 1441.140625 0.000000 -0.000238 0.119206 -0.015879 -107.493721 1441.140625
[R_Leg03]
17 1686.963989 0.000954 0.001431 -0.024630 0.009949 103.462646 1686.963989
18 1686.963989 0.000954 0.001431 -0.031722 0.010345 101.910973 1686.963989
[R_Foot]
17 3041.560059 -30.531288 -11.204481 6.871470 -20.319065 63.472736 3041.734131
18 3041.560059 -30.531288 -11.204481 11.142555 -21.059633 60.858467 3041.734131
[planeAlignerRight]
17 -51.105202 -570.955139 -58.574326 -36.777313 -83.295303 -57.446808 576.222595
18 -33.728210 -587.475769 -36.635017 -37.091057 -85.951897 -55.524475 589.582458
[R_Toe1_01]
17 -188.383347 -224.864899 21.052242 85.144371 -2.122828 -171.467606 294.101532
18 -188.383347 -224.864899 21.052242 87.198502 -0.532761 -169.346466 294.101532
[R_Toe2_01]
17 200.637817 -220.002121 -148.787384 -98.487976 17.380388 -45.194695 332.857574
18 200.637817 -220.002121 -148.787384 -99.923729 15.606716 -44.735538 332.857574
[R_Toe3_01]
17 188.606735 -220.092957 191.126343 -71.179901 -17.131927 -53.420010 347.192566
18 188.606735 -220.092957 191.126343 -72.403160 -16.750313 -50.373039 347.192566
[planeLockWeightRight]
17 999.999817 0.000038 -0.000417 -0.011823 -0.004379 -0.000027 999.999817
18 999.999817 0.000076 -0.000424 -0.011823 -0.004379 -0.000027 999.999817
[R_Toe1_02]
17 413.762085 0.000477 -0.000119 0.000006 -25.434675 -0.000005 413.762085
18 413.762085 0.000477 -0.000119 0.000006 -25.434675 -0.000005 413.762085
[R_Toe1_03]
17 464.317810 0.000000 0.001088 0.012675 79.374748 0.012675 464.317810
18 464.317810 0.000000 0.001088 0.014218 80.529991 0.014218 464.317810
[R_Toe2_02]
17 342.234741 -0.000954 0.000238 -0.002337 -77.493690 -0.002337 342.234741
18 342.234741 -0.000954 0.000238 -0.002337 -77.557152 -0.002337 342.234741
[R_Toe2_03]
17 420.210846 0.000715 -0.000268 -179.992950 77.536079 -179.996475 420.210846
18 420.210846 0.000715 -0.000268 -179.993073 77.250877 -179.996582 420.210846
[R_Toe3_02]
17 329.270355 -0.000477 -0.000954 0.001177 -80.765709 0.001177 329.270355
18 329.270355 -0.000477 -0.000954 0.001177 -81.090729 0.001177 329.270355
[R_Toe3_03]
17 439.137939 0.000238 0.001431 -179.996521 77.402908 -179.992996 439.137939
18 439.137939 0.000238 0.001431 -179.997025 76.071907 -179.993500 439.137939
[Rear_Leg02]
17 1162.777710 -0.029802 0.005960 5.353255 -28.368942 -68.040947 1162.777710
18 1162.777710 -0.029802 0.005960 18.702526 -23.744846 -92.262917 1162.777710
[Rear_Leg03]
17 607.192505 -0.013351 -0.073195 0.006477 -0.002104 64.204834 607.192505
18 607.192505 -0.013351 -0.073195 0.010272 -0.005534 72.983315 607.192505
[Rear_Leg04]
17 995.874512 -0.020504 -0.011921 -0.040492 -0.015228 58.052551 995.874573
18 995.874512 -0.020504 -0.011921 -0.041750 -0.015030 77.764580 995.874573
[Rear_Foot]
17 3096.176270 -0.067472 -0.041425 -107.351112 60.041653 58.131912 3096.176270
18 3096.176270 -0.067472 -0.041425 -87.583549 60.195736 61.963799 3096.176270
[planeAlignerCenter]
17 59.646156 14.183320 -778.922852 10.968151 -0.001494 179.998184 781.331970
18 43.159054 75.788605 -778.845459 7.930987 -0.001541 179.998230 783.713562
[Rear_Toe1_01]
17 0.653352 83.966492 -371.173737 -1.985633 40.905506 86.642212 380.553192
18 0.653352 83.966492 -371.173737 -1.512442 38.717018 87.514038 380.553192
[Rear_Toe2_01]
17 178.200760 -294.826019 -362.060547 -0.421396 38.714931 -60.600357 499.765686
18 178.200760 -294.826019 -362.060547 4.237867 48.107559 -58.944588 499.765686
[Rear_Toe3_01]
17 -153.359680 -308.780914 -362.060852 3.996809 38.286388 -109.285271 499.952881
18 -153.359680 -308.780914 -362.060852 1.838189 47.691093 -111.217598 499.952881
[planeLockWeightCenter]
17 740.741028 0.000305 -0.000029 -0.011814 -0.004373 -0.000015 740.741028
18 259.260193 0.000458 -0.000095 -0.011814 -0.004373 -0.000015 259.260162
[Rear_Toe1_02]
17 379.707825 0.194073 0.000477 -0.000767 -33.624729 0.000838 379.707855
18 379.707825 0.194073 0.000477 -0.000767 -33.624729 0.000838 379.707855
[Rear_Toe1_03]
17 500.129700 0.165701 0.000119 -0.003970 59.084560 -0.000342 500.129761
18 500.129700 0.165701 0.000119 0.008619 74.348854 0.008619 500.129761
[Rear_Toe2_02]
17 340.494507 0.000238 -0.000954 0.001185 -74.388191 0.001185 340.494507
18 340.494507 0.000238 -0.000954 0.001174 -86.059212 0.001174 340.494507
[Rear_Toe2_03]
17 433.103577 0.000000 0.000238 0.010493 77.155937 0.010493 433.103546
18 433.103577 0.000000 0.000238 -179.992538 78.433334 -179.996063 433.103546
[Rear_Toe3_02]
17 340.494141 -0.000358 -0.000477 0.001180 -77.823853 0.001180 340.494171
18 340.494141 -0.000358 -0.000477 0.001174 -87.426636 0.001174 340.494171
[Rear_Toe3_03]
17 433.103577 0.001431 -0.000238 -0.011646 83.339973 -0.008143 433.103546
18 433.103577 0.001431 -0.000238 -179.997452 74.696930 -179.993927 433.103546
[Back_Bone]
17 1312.175781 -701.934692 0.000954 -1.868886 1.153182 -84.487404 1488.125488
18 1312.175781 -701.934692 0.000954 -2.134085 1.239973 -84.407181 1488.125488
[Head]
17 1406.159424 809.709290 0.001431 -7.783786 6.696099 3.554140 1622.625488
18 1406.159424 809.709290 0.001431 -8.445581 7.221150 3.115623 1622.625488
[Motor_Bone]
17 1158.364380 -417.834747 0.000477 -1.885591 0.117789 -105.868080 1231.419434
18 1158.364380 -417.834747 0.000477 -2.086182 0.121302 -105.863945 1231.419434
[Ping_Mechanism]
17 1254.003052 -452.019440 -19.340572 0.000103 -0.000053 82.120995 1333.123901
18 1258.425293 -453.497925 -25.253132 0.000103 -0.000053 82.120995 1337.883423
[BN_LookIK]
17 193.241119 1380.371704 -0.002861 0.000000 89.965736 -31.038179 1393.832153
18 193.241119 1380.371704 -0.002861 0.000000 89.965736 -31.038179 1393.832153
[bottomMouth]
17 -435.092926 615.759399 -0.000954 -0.000022 0.000016 73.527184 753.966492
18 -435.092926 615.759399 -0.000954 -0.000022 0.000016 73.527184 753.966492
[L_Mouth01]
17 554.440979 7.658243 838.222046 150.204178 23.759130 109.605339 1005.027161
18 554.440979 7.658243 838.222046 150.204178 23.759130 109.605339 1005.027161
[L_mouthFront]
17 551.629089 934.514771 339.150421 0.000081 2.804060 79.119301 1136.941284
18 551.629089 934.514771 339.150421 0.000081 2.804060 79.119301 1136.941284
[mouthGun]
17 55.332661 1627.420898 0.000000 0.000023 0.000009 -11.038128 1628.361328
18 55.332661 1627.420898 0.000000 0.000023 0.000009 -11.038128 1628.361328
[R_Mouth01]
17 554.442383 7.659197 -838.223938 29.795891 -23.759109 109.605331 1005.029541
18 554.442383 7.659197 -838.223938 29.795891 -23.759109 109.605331 1005.029541
[R_mouthFront]
17 551.629089 934.514282 -339.151367 0.000029 -2.803930 79.119133 1136.941162
18 551.629089 934.514282 -339.151367 0.000029 -2.803930 79.119133 1136.941162
[TopMouth]
17 461.269867 -56.106091 -0.008583 -0.000059 -0.000268 92.025169 464.669525
18 461.269867 -56.106091 -0.008583 -0.000059 -0.000268 92.025169 464.669525
[weapon_bone]
17 -987.239868 1448.372803 0.001431 0.000000 89.965736 -31.038221 1752.833740
18 -987.239868 1448.372803 0.001431 0.000000 89.965736 -31.038221 1752.833740
